<svg width="451" height="338" viewBox="0 0 451 338" fill="none" xmlns="http://www.w3.org/2000/svg">
<g clip-path="url(#clip0_1_2)">
<rect width="338" height="451" transform="matrix(0 -1 1 0 0 338)" fill="black"/>
<path d="M105.533 120.818V147H100.061V125.318H89.4759V147H84.0043V120.818H105.533ZM110.701 154.364V127.364H116.07V130.662H116.313C116.551 130.134 116.897 129.597 117.348 129.051C117.809 128.497 118.405 128.037 119.138 127.67C119.88 127.295 120.8 127.108 121.9 127.108C123.331 127.108 124.652 127.483 125.863 128.233C127.073 128.974 128.04 130.095 128.765 131.595C129.489 133.087 129.851 134.957 129.851 137.207C129.851 139.398 129.498 141.247 128.79 142.756C128.091 144.256 127.137 145.393 125.926 146.169C124.725 146.936 123.378 147.32 121.887 147.32C120.83 147.32 119.931 147.145 119.189 146.795C118.456 146.446 117.855 146.007 117.387 145.479C116.918 144.942 116.56 144.401 116.313 143.855H116.147V154.364H110.701ZM116.032 137.182C116.032 138.349 116.194 139.368 116.517 140.237C116.841 141.107 117.31 141.784 117.924 142.27C118.537 142.747 119.283 142.986 120.161 142.986C121.047 142.986 121.797 142.743 122.411 142.257C123.025 141.763 123.489 141.081 123.804 140.212C124.128 139.334 124.29 138.324 124.29 137.182C124.29 136.048 124.132 135.051 123.817 134.19C123.502 133.33 123.037 132.656 122.424 132.17C121.81 131.685 121.056 131.442 120.161 131.442C119.275 131.442 118.525 131.676 117.911 132.145C117.306 132.614 116.841 133.278 116.517 134.139C116.194 135 116.032 136.014 116.032 137.182ZM138.685 139.815L145.755 127.364H151.124V147H145.934V134.51L138.89 147H133.482V127.364H138.685V139.815ZM155.49 147V127.364H163.863C166.284 127.364 168.197 127.824 169.603 128.744C171.01 129.665 171.713 130.973 171.713 132.669C171.713 133.734 171.316 134.621 170.524 135.328C169.731 136.036 168.632 136.513 167.225 136.76C168.402 136.845 169.403 137.114 170.23 137.565C171.065 138.009 171.7 138.584 172.135 139.291C172.578 139.999 172.799 140.783 172.799 141.643C172.799 142.76 172.501 143.719 171.904 144.52C171.316 145.321 170.451 145.935 169.309 146.361C168.176 146.787 166.791 147 165.154 147H155.49ZM160.565 142.922H165.154C165.913 142.922 166.505 142.743 166.931 142.385C167.366 142.018 167.583 141.52 167.583 140.889C167.583 140.19 167.366 139.641 166.931 139.24C166.505 138.839 165.913 138.639 165.154 138.639H160.565V142.922ZM160.565 135.443H163.978C164.524 135.443 164.988 135.366 165.372 135.213C165.764 135.051 166.062 134.821 166.267 134.523C166.48 134.224 166.586 133.871 166.586 133.462C166.586 132.857 166.343 132.384 165.858 132.043C165.372 131.702 164.707 131.531 163.863 131.531H160.565V135.443ZM185.181 147.384C183.161 147.384 181.422 146.974 179.965 146.156C178.516 145.33 177.4 144.162 176.615 142.653C175.831 141.136 175.439 139.342 175.439 137.271C175.439 135.251 175.831 133.479 176.615 131.953C177.4 130.428 178.503 129.239 179.926 128.386C181.358 127.534 183.037 127.108 184.963 127.108C186.259 127.108 187.465 127.317 188.581 127.734C189.706 128.143 190.686 128.761 191.522 129.588C192.365 130.415 193.022 131.455 193.49 132.707C193.959 133.952 194.194 135.409 194.194 137.08V138.575H177.613V135.2H189.067C189.067 134.416 188.897 133.722 188.556 133.116C188.215 132.511 187.742 132.038 187.137 131.697C186.54 131.348 185.846 131.173 185.053 131.173C184.226 131.173 183.493 131.365 182.854 131.749C182.223 132.124 181.729 132.631 181.371 133.27C181.013 133.901 180.83 134.604 180.821 135.379V138.588C180.821 139.56 181 140.399 181.358 141.107C181.725 141.814 182.24 142.359 182.905 142.743C183.57 143.126 184.358 143.318 185.27 143.318C185.875 143.318 186.429 143.233 186.932 143.062C187.435 142.892 187.865 142.636 188.223 142.295C188.581 141.955 188.854 141.537 189.042 141.043L194.078 141.375C193.823 142.585 193.299 143.642 192.506 144.545C191.722 145.44 190.708 146.139 189.463 146.642C188.228 147.136 186.8 147.384 185.181 147.384ZM196.233 131.646V127.364H214.028V131.646H207.7V147H202.51V131.646H196.233ZM223.837 120.818L223.338 139.151H218.659L218.148 120.818H223.837ZM220.999 147.332C220.155 147.332 219.43 147.034 218.825 146.438C218.22 145.832 217.922 145.108 217.93 144.264C217.922 143.429 218.22 142.713 218.825 142.116C219.43 141.52 220.155 141.222 220.999 141.222C221.808 141.222 222.52 141.52 223.134 142.116C223.747 142.713 224.058 143.429 224.067 144.264C224.058 144.827 223.909 145.342 223.619 145.811C223.338 146.271 222.967 146.642 222.507 146.923C222.047 147.196 221.544 147.332 220.999 147.332ZM257.532 147H252.01V125.344H248.277C247.211 125.344 246.325 125.501 245.618 125.817C244.919 126.124 244.395 126.575 244.045 127.172C243.696 127.768 243.521 128.501 243.521 129.371C243.521 130.232 243.696 130.952 244.045 131.531C244.395 132.111 244.919 132.545 245.618 132.835C246.316 133.125 247.194 133.27 248.251 133.27H254.26V137.719H247.356C245.353 137.719 243.64 137.386 242.217 136.722C240.794 136.057 239.707 135.102 238.957 133.858C238.207 132.605 237.832 131.109 237.832 129.371C237.832 127.641 238.199 126.136 238.931 124.858C239.673 123.571 240.743 122.578 242.14 121.879C243.547 121.172 245.238 120.818 247.216 120.818H257.532V147ZM243.406 135.085H249.376L243.01 147H236.899L243.406 135.085ZM270.412 120.818H275.935V137.284H276.152L287.466 120.818H292.311V147H286.776V130.521H286.584L275.206 147H270.412V120.818ZM295.632 147L295.607 142.679H296.259C296.719 142.679 297.115 142.568 297.447 142.347C297.788 142.116 298.07 141.746 298.291 141.234C298.513 140.723 298.688 140.045 298.815 139.202C298.943 138.349 299.028 137.301 299.071 136.057L299.391 127.364H314.322V147H309.132V131.646H304.287L303.98 137.642C303.903 139.287 303.703 140.702 303.379 141.886C303.064 143.071 302.625 144.043 302.062 144.801C301.5 145.551 300.822 146.105 300.03 146.463C299.237 146.821 298.317 147 297.268 147H295.632ZM321.958 133.398H327.826C330.425 133.398 332.453 134.02 333.911 135.264C335.368 136.5 336.097 138.153 336.097 140.224C336.097 141.571 335.769 142.756 335.113 143.778C334.456 144.793 333.51 145.585 332.275 146.156C331.039 146.719 329.556 147 327.826 147H318.544V127.364H323.748V142.717H327.826C328.738 142.717 329.488 142.487 330.076 142.027C330.664 141.567 330.962 140.979 330.971 140.263C330.962 139.504 330.664 138.886 330.076 138.409C329.488 137.923 328.738 137.68 327.826 137.68H321.958V133.398ZM351.214 147V131.634H347.532C346.535 131.634 345.777 131.864 345.257 132.324C344.737 132.784 344.481 133.33 344.49 133.96C344.481 134.599 344.728 135.141 345.231 135.584C345.743 136.018 346.493 136.236 347.481 136.236H353.029V139.918H347.481C345.802 139.918 344.349 139.662 343.122 139.151C341.895 138.639 340.949 137.928 340.284 137.016C339.619 136.095 339.291 135.026 339.299 133.807C339.291 132.528 339.619 131.408 340.284 130.445C340.949 129.473 341.899 128.719 343.135 128.182C344.379 127.636 345.845 127.364 347.532 127.364H356.289V147H351.214ZM338.737 147L344.196 136.773H349.399L343.953 147H338.737ZM363.704 147.332C362.86 147.332 362.136 147.034 361.531 146.438C360.934 145.832 360.636 145.108 360.636 144.264C360.636 143.429 360.934 142.713 361.531 142.116C362.136 141.52 362.86 141.222 363.704 141.222C364.522 141.222 365.238 141.52 365.852 142.116C366.466 142.713 366.772 143.429 366.772 144.264C366.772 144.827 366.627 145.342 366.338 145.811C366.056 146.271 365.686 146.642 365.225 146.923C364.765 147.196 364.258 147.332 363.704 147.332ZM96.1705 202.545V220H94.0568V204.42H85.2614V220H83.1477V202.545H96.1705ZM102.173 217.034L108.479 206.909H110.798V220H108.786V209.875L102.513 220H100.161V206.909H102.173V217.034ZM114.482 206.909H116.493V218.125H121.436V206.909H123.447V218.125H128.391V206.909H130.402V220H114.482V206.909ZM134.902 224.909C134.561 224.909 134.257 224.881 133.99 224.824C133.723 224.773 133.538 224.722 133.436 224.67L133.947 222.898C134.436 223.023 134.868 223.068 135.243 223.034C135.618 223 135.95 222.832 136.24 222.531C136.536 222.236 136.805 221.756 137.05 221.091L137.425 220.068L132.584 206.909H134.766L138.379 217.341H138.516L142.129 206.909H144.311L138.754 221.909C138.504 222.585 138.195 223.145 137.825 223.588C137.456 224.037 137.027 224.369 136.538 224.585C136.055 224.801 135.51 224.909 134.902 224.909ZM153.716 220V206.909H155.727V212.602H157.057L161.761 206.909H164.352L159.068 213.216L164.42 220H161.83L157.534 214.477H155.727V220H153.716ZM171.386 220.273C170.204 220.273 169.167 219.991 168.275 219.429C167.388 218.866 166.695 218.08 166.195 217.068C165.701 216.057 165.454 214.875 165.454 213.523C165.454 212.159 165.701 210.969 166.195 209.952C166.695 208.935 167.388 208.145 168.275 207.582C169.167 207.02 170.204 206.739 171.386 206.739C172.567 206.739 173.602 207.02 174.488 207.582C175.38 208.145 176.073 208.935 176.567 209.952C177.067 210.969 177.317 212.159 177.317 213.523C177.317 214.875 177.067 216.057 176.567 217.068C176.073 218.08 175.38 218.866 174.488 219.429C173.602 219.991 172.567 220.273 171.386 220.273ZM171.386 218.466C172.283 218.466 173.022 218.236 173.602 217.776C174.181 217.315 174.61 216.71 174.888 215.96C175.167 215.21 175.306 214.398 175.306 213.523C175.306 212.648 175.167 211.832 174.888 211.077C174.61 210.321 174.181 209.71 173.602 209.244C173.022 208.778 172.283 208.545 171.386 208.545C170.488 208.545 169.749 208.778 169.17 209.244C168.59 209.71 168.161 210.321 167.883 211.077C167.604 211.832 167.465 212.648 167.465 213.523C167.465 214.398 167.604 215.21 167.883 215.96C168.161 216.71 168.59 217.315 169.17 217.776C169.749 218.236 170.488 218.466 171.386 218.466ZM178.99 223.75V218.125H180.081C180.348 217.847 180.578 217.545 180.771 217.222C180.964 216.898 181.132 216.514 181.274 216.071C181.422 215.622 181.547 215.077 181.649 214.435C181.751 213.787 181.842 213.006 181.922 212.091L182.365 206.909H190.683V218.125H192.695V223.75H190.683V220H181.001V223.75H178.99ZM182.365 218.125H188.672V208.784H184.24L183.899 212.091C183.757 213.46 183.581 214.656 183.371 215.679C183.161 216.702 182.825 217.517 182.365 218.125ZM210.876 212.534V214.409H203.648V212.534H210.876ZM204.126 206.909V220H202.114V206.909H204.126ZM212.41 206.909V220H210.398V206.909H212.41ZM219.935 220.307C219.106 220.307 218.353 220.151 217.677 219.838C217.001 219.52 216.464 219.062 216.066 218.466C215.668 217.864 215.469 217.136 215.469 216.284C215.469 215.534 215.617 214.926 215.913 214.46C216.208 213.989 216.603 213.619 217.097 213.352C217.592 213.085 218.137 212.886 218.734 212.756C219.336 212.619 219.941 212.511 220.549 212.432C221.344 212.33 221.989 212.253 222.484 212.202C222.984 212.145 223.347 212.051 223.575 211.92C223.808 211.79 223.924 211.562 223.924 211.239V211.17C223.924 210.33 223.694 209.676 223.234 209.21C222.779 208.744 222.089 208.511 221.163 208.511C220.202 208.511 219.45 208.722 218.904 209.142C218.359 209.562 217.975 210.011 217.754 210.489L215.844 209.807C216.185 209.011 216.64 208.392 217.208 207.949C217.782 207.5 218.407 207.187 219.083 207.011C219.765 206.83 220.435 206.739 221.094 206.739C221.515 206.739 221.998 206.79 222.543 206.892C223.094 206.989 223.626 207.19 224.137 207.497C224.654 207.804 225.083 208.267 225.424 208.886C225.765 209.506 225.935 210.335 225.935 211.375V220H223.924V218.227H223.822C223.685 218.511 223.458 218.815 223.14 219.139C222.822 219.463 222.398 219.739 221.87 219.966C221.342 220.193 220.697 220.307 219.935 220.307ZM220.242 218.5C221.038 218.5 221.708 218.344 222.254 218.031C222.805 217.719 223.219 217.315 223.498 216.821C223.782 216.327 223.924 215.807 223.924 215.261V213.42C223.839 213.523 223.651 213.616 223.362 213.702C223.077 213.781 222.748 213.852 222.373 213.915C222.004 213.972 221.643 214.023 221.29 214.068C220.944 214.108 220.663 214.142 220.447 214.17C219.924 214.239 219.435 214.349 218.981 214.503C218.532 214.651 218.168 214.875 217.89 215.176C217.617 215.472 217.481 215.875 217.481 216.386C217.481 217.085 217.739 217.614 218.256 217.972C218.779 218.324 219.441 218.5 220.242 218.5ZM248.561 208C248.374 207.426 248.126 206.912 247.82 206.457C247.518 205.997 247.158 205.605 246.737 205.281C246.322 204.957 245.851 204.71 245.322 204.54C244.794 204.369 244.214 204.284 243.584 204.284C242.55 204.284 241.609 204.551 240.763 205.085C239.916 205.619 239.243 206.406 238.743 207.446C238.243 208.486 237.993 209.761 237.993 211.273C237.993 212.784 238.246 214.06 238.751 215.099C239.257 216.139 239.942 216.926 240.805 217.46C241.669 217.994 242.641 218.261 243.72 218.261C244.72 218.261 245.601 218.048 246.362 217.622C247.129 217.19 247.726 216.582 248.152 215.798C248.584 215.009 248.8 214.08 248.8 213.011L249.447 213.148H244.197V211.273H250.845V213.148C250.845 214.585 250.538 215.835 249.925 216.898C249.317 217.96 248.476 218.784 247.402 219.369C246.334 219.949 245.107 220.239 243.72 220.239C242.175 220.239 240.817 219.875 239.646 219.148C238.482 218.42 237.572 217.386 236.919 216.045C236.271 214.705 235.947 213.114 235.947 211.273C235.947 209.892 236.132 208.651 236.501 207.548C236.876 206.44 237.405 205.497 238.087 204.719C238.768 203.94 239.575 203.344 240.507 202.929C241.439 202.514 242.464 202.307 243.584 202.307C244.504 202.307 245.362 202.446 246.158 202.724C246.959 202.997 247.672 203.386 248.297 203.892C248.928 204.392 249.453 204.991 249.874 205.69C250.294 206.384 250.584 207.153 250.743 208H248.561ZM259.511 220.273C258.329 220.273 257.292 219.991 256.4 219.429C255.513 218.866 254.82 218.08 254.32 217.068C253.826 216.057 253.579 214.875 253.579 213.523C253.579 212.159 253.826 210.969 254.32 209.952C254.82 208.935 255.513 208.145 256.4 207.582C257.292 207.02 258.329 206.739 259.511 206.739C260.692 206.739 261.727 207.02 262.613 207.582C263.505 208.145 264.198 208.935 264.692 209.952C265.192 210.969 265.442 212.159 265.442 213.523C265.442 214.875 265.192 216.057 264.692 217.068C264.198 218.08 263.505 218.866 262.613 219.429C261.727 219.991 260.692 220.273 259.511 220.273ZM259.511 218.466C260.408 218.466 261.147 218.236 261.727 217.776C262.306 217.315 262.735 216.71 263.013 215.96C263.292 215.21 263.431 214.398 263.431 213.523C263.431 212.648 263.292 211.832 263.013 211.077C262.735 210.321 262.306 209.71 261.727 209.244C261.147 208.778 260.408 208.545 259.511 208.545C258.613 208.545 257.874 208.778 257.295 209.244C256.715 209.71 256.286 210.321 256.008 211.077C255.729 211.832 255.59 212.648 255.59 213.523C255.59 214.398 255.729 215.21 256.008 215.96C256.286 216.71 256.715 217.315 257.295 217.776C257.874 218.236 258.613 218.466 259.511 218.466Z" fill="#CECDCD"/>
<rect width="33" height="33" transform="translate(277 195)" fill="white"/>
<path d="M286.625 218.375L300.375 204.625M300.375 204.625H286.625M300.375 204.625V218.375" stroke="#1E1E1E" stroke-width="4" stroke-linecap="round" stroke-linejoin="round"/>
</g>
<defs>
<clipPath id="clip0_1_2">
<rect width="338" height="451" fill="white" transform="matrix(0 -1 1 0 0 338)"/>
</clipPath>
</defs>
</svg>
