<svg width="450" height="250" viewBox="0 0 450 250" fill="none" xmlns="http://www.w3.org/2000/svg">
<g clip-path="url(#clip0_1_2)">
<rect width="250" height="450" transform="matrix(0 -1 1 0 0 250)" fill="#0F1217"/>
<path d="M104.533 75.8182V102H99.0611V80.3182H88.4759V102H83.0043V75.8182H104.533ZM109.701 109.364V82.3636H115.07V85.6619H115.313C115.551 85.1335 115.897 84.5966 116.348 84.0511C116.809 83.4972 117.405 83.0369 118.138 82.6705C118.88 82.2955 119.8 82.108 120.9 82.108C122.331 82.108 123.652 82.483 124.863 83.233C126.073 83.9744 127.04 85.0952 127.765 86.5952C128.489 88.0866 128.851 89.9574 128.851 92.2074C128.851 94.3977 128.498 96.2472 127.79 97.7557C127.091 99.2557 126.137 100.393 124.926 101.169C123.725 101.936 122.378 102.32 120.887 102.32C119.83 102.32 118.931 102.145 118.189 101.795C117.456 101.446 116.855 101.007 116.387 100.479C115.918 99.9418 115.56 99.4006 115.313 98.8551H115.147V109.364H109.701ZM115.032 92.1818C115.032 93.3494 115.194 94.3679 115.517 95.2372C115.841 96.1065 116.31 96.7841 116.924 97.2699C117.537 97.7472 118.283 97.9858 119.161 97.9858C120.047 97.9858 120.797 97.7429 121.411 97.2571C122.025 96.7628 122.489 96.081 122.804 95.2116C123.128 94.3338 123.29 93.3239 123.29 92.1818C123.29 91.0483 123.132 90.0511 122.817 89.1903C122.502 88.3295 122.037 87.6562 121.424 87.1705C120.81 86.6847 120.056 86.4418 119.161 86.4418C118.275 86.4418 117.525 86.6761 116.911 87.1449C116.306 87.6136 115.841 88.2784 115.517 89.1392C115.194 90 115.032 91.0142 115.032 92.1818ZM137.685 94.8153L144.755 82.3636H150.124V102H144.934V89.5099L137.89 102H132.482V82.3636H137.685V94.8153ZM154.49 102V82.3636H162.863C165.284 82.3636 167.197 82.8239 168.603 83.7443C170.01 84.6648 170.713 85.973 170.713 87.669C170.713 88.7344 170.316 89.6207 169.524 90.3281C168.731 91.0355 167.632 91.5128 166.225 91.7599C167.402 91.8452 168.403 92.1136 169.23 92.5653C170.065 93.0085 170.7 93.5838 171.135 94.2912C171.578 94.9986 171.799 95.7827 171.799 96.6435C171.799 97.7599 171.501 98.7187 170.904 99.5199C170.316 100.321 169.451 100.935 168.309 101.361C167.176 101.787 165.791 102 164.154 102H154.49ZM159.565 97.9219H164.154C164.913 97.9219 165.505 97.7429 165.931 97.3849C166.366 97.0185 166.583 96.5199 166.583 95.8892C166.583 95.1903 166.366 94.6406 165.931 94.2401C165.505 93.8395 164.913 93.6392 164.154 93.6392H159.565V97.9219ZM159.565 90.4432H162.978C163.524 90.4432 163.988 90.3665 164.372 90.2131C164.764 90.0511 165.062 89.821 165.267 89.5227C165.48 89.2244 165.586 88.8707 165.586 88.4616C165.586 87.8565 165.343 87.3835 164.858 87.0426C164.372 86.7017 163.707 86.5312 162.863 86.5312H159.565V90.4432ZM184.181 102.384C182.161 102.384 180.422 101.974 178.965 101.156C177.516 100.33 176.4 99.1619 175.615 97.6534C174.831 96.1364 174.439 94.3423 174.439 92.2713C174.439 90.2514 174.831 88.4787 175.615 86.9531C176.4 85.4276 177.503 84.2386 178.926 83.3864C180.358 82.5341 182.037 82.108 183.963 82.108C185.259 82.108 186.465 82.3168 187.581 82.7344C188.706 83.1435 189.686 83.7614 190.522 84.5881C191.365 85.4148 192.022 86.4545 192.49 87.7074C192.959 88.9517 193.194 90.4091 193.194 92.0795V93.5753H176.613V90.2003H188.067C188.067 89.4162 187.897 88.7216 187.556 88.1165C187.215 87.5114 186.742 87.0384 186.137 86.6974C185.54 86.348 184.846 86.1733 184.053 86.1733C183.226 86.1733 182.493 86.3651 181.854 86.7486C181.223 87.1236 180.729 87.6307 180.371 88.2699C180.013 88.9006 179.83 89.6037 179.821 90.3793V93.5881C179.821 94.5597 180 95.3991 180.358 96.1065C180.725 96.8139 181.24 97.3594 181.905 97.7429C182.57 98.1264 183.358 98.3182 184.27 98.3182C184.875 98.3182 185.429 98.233 185.932 98.0625C186.435 97.892 186.865 97.6364 187.223 97.2955C187.581 96.9545 187.854 96.5369 188.042 96.0426L193.078 96.375C192.823 97.5852 192.299 98.642 191.506 99.5455C190.722 100.44 189.708 101.139 188.463 101.642C187.228 102.136 185.8 102.384 184.181 102.384ZM195.233 86.6463V82.3636H213.028V86.6463H206.7V102H201.51V86.6463H195.233ZM222.837 75.8182L222.338 94.1506H217.659L217.148 75.8182H222.837ZM219.999 102.332C219.155 102.332 218.43 102.034 217.825 101.438C217.22 100.832 216.922 100.108 216.93 99.2642C216.922 98.429 217.22 97.7131 217.825 97.1165C218.43 96.5199 219.155 96.2216 219.999 96.2216C220.808 96.2216 221.52 96.5199 222.134 97.1165C222.747 97.7131 223.058 98.429 223.067 99.2642C223.058 99.8267 222.909 100.342 222.619 100.811C222.338 101.271 221.967 101.642 221.507 101.923C221.047 102.196 220.544 102.332 219.999 102.332ZM256.532 102H251.01V80.3438H247.277C246.211 80.3438 245.325 80.5014 244.618 80.8168C243.919 81.1236 243.395 81.5753 243.045 82.1719C242.696 82.7685 242.521 83.5014 242.521 84.3707C242.521 85.2315 242.696 85.9517 243.045 86.5312C243.395 87.1108 243.919 87.5455 244.618 87.8352C245.316 88.125 246.194 88.2699 247.251 88.2699H253.26V92.7188H246.356C244.353 92.7188 242.64 92.3864 241.217 91.7216C239.794 91.0568 238.707 90.1023 237.957 88.858C237.207 87.6051 236.832 86.1094 236.832 84.3707C236.832 82.6406 237.199 81.1364 237.931 79.858C238.673 78.571 239.743 77.5781 241.14 76.8793C242.547 76.1719 244.238 75.8182 246.216 75.8182H256.532V102ZM242.406 90.0852H248.376L242.01 102H235.899L242.406 90.0852ZM269.412 75.8182H274.935V92.2841H275.152L286.466 75.8182H291.311V102H285.776V85.5213H285.584L274.206 102H269.412V75.8182ZM294.632 102L294.607 97.679H295.259C295.719 97.679 296.115 97.5682 296.447 97.3466C296.788 97.1165 297.07 96.7457 297.291 96.2344C297.513 95.723 297.688 95.0455 297.815 94.2017C297.943 93.3494 298.028 92.3011 298.071 91.0568L298.391 82.3636H313.322V102H308.132V86.6463H303.287L302.98 92.642C302.903 94.2869 302.703 95.7017 302.379 96.8864C302.064 98.071 301.625 99.0426 301.062 99.8011C300.5 100.551 299.822 101.105 299.03 101.463C298.237 101.821 297.317 102 296.268 102H294.632ZM320.958 88.3977H326.826C329.425 88.3977 331.453 89.0199 332.911 90.2642C334.368 91.5 335.097 93.1534 335.097 95.2244C335.097 96.571 334.769 97.7557 334.113 98.7784C333.456 99.7926 332.51 100.585 331.275 101.156C330.039 101.719 328.556 102 326.826 102H317.544V82.3636H322.748V97.7173H326.826C327.738 97.7173 328.488 97.4872 329.076 97.027C329.664 96.5668 329.962 95.9787 329.971 95.2628C329.962 94.5043 329.664 93.8864 329.076 93.4091C328.488 92.9233 327.738 92.6804 326.826 92.6804H320.958V88.3977ZM350.214 102V86.6335H346.532C345.535 86.6335 344.777 86.8636 344.257 87.3239C343.737 87.7841 343.481 88.3295 343.49 88.9602C343.481 89.5994 343.728 90.1406 344.231 90.5838C344.743 91.0185 345.493 91.2358 346.481 91.2358H352.029V94.9176H346.481C344.802 94.9176 343.349 94.6619 342.122 94.1506C340.895 93.6392 339.949 92.9276 339.284 92.0156C338.619 91.0952 338.291 90.0256 338.299 88.8068C338.291 87.5284 338.619 86.4077 339.284 85.4446C339.949 84.473 340.899 83.7187 342.135 83.1818C343.379 82.6364 344.845 82.3636 346.532 82.3636H355.289V102H350.214ZM337.737 102L343.196 91.7727H348.399L342.953 102H337.737ZM362.704 102.332C361.86 102.332 361.136 102.034 360.531 101.438C359.934 100.832 359.636 100.108 359.636 99.2642C359.636 98.429 359.934 97.7131 360.531 97.1165C361.136 96.5199 361.86 96.2216 362.704 96.2216C363.522 96.2216 364.238 96.5199 364.852 97.1165C365.466 97.7131 365.772 98.429 365.772 99.2642C365.772 99.8267 365.627 100.342 365.338 100.811C365.056 101.271 364.686 101.642 364.225 101.923C363.765 102.196 363.258 102.332 362.704 102.332ZM95.1705 157.545V175H93.0568V159.42H84.2614V175H82.1477V157.545H95.1705ZM101.173 172.034L107.479 161.909H109.798V175H107.786V164.875L101.513 175H99.1612V161.909H101.173V172.034ZM113.482 161.909H115.493V173.125H120.436V161.909H122.447V173.125H127.391V161.909H129.402V175H113.482V161.909ZM133.902 179.909C133.561 179.909 133.257 179.881 132.99 179.824C132.723 179.773 132.538 179.722 132.436 179.67L132.947 177.898C133.436 178.023 133.868 178.068 134.243 178.034C134.618 178 134.95 177.832 135.24 177.531C135.536 177.236 135.805 176.756 136.05 176.091L136.425 175.068L131.584 161.909H133.766L137.379 172.341H137.516L141.129 161.909H143.311L137.754 176.909C137.504 177.585 137.195 178.145 136.825 178.588C136.456 179.037 136.027 179.369 135.538 179.585C135.055 179.801 134.51 179.909 133.902 179.909ZM152.716 175V161.909H154.727V167.602H156.057L160.761 161.909H163.352L158.068 168.216L163.42 175H160.83L156.534 169.477H154.727V175H152.716ZM170.386 175.273C169.204 175.273 168.167 174.991 167.275 174.429C166.388 173.866 165.695 173.08 165.195 172.068C164.701 171.057 164.454 169.875 164.454 168.523C164.454 167.159 164.701 165.969 165.195 164.952C165.695 163.935 166.388 163.145 167.275 162.582C168.167 162.02 169.204 161.739 170.386 161.739C171.567 161.739 172.602 162.02 173.488 162.582C174.38 163.145 175.073 163.935 175.567 164.952C176.067 165.969 176.317 167.159 176.317 168.523C176.317 169.875 176.067 171.057 175.567 172.068C175.073 173.08 174.38 173.866 173.488 174.429C172.602 174.991 171.567 175.273 170.386 175.273ZM170.386 173.466C171.283 173.466 172.022 173.236 172.602 172.776C173.181 172.315 173.61 171.71 173.888 170.96C174.167 170.21 174.306 169.398 174.306 168.523C174.306 167.648 174.167 166.832 173.888 166.077C173.61 165.321 173.181 164.71 172.602 164.244C172.022 163.778 171.283 163.545 170.386 163.545C169.488 163.545 168.749 163.778 168.17 164.244C167.59 164.71 167.161 165.321 166.883 166.077C166.604 166.832 166.465 167.648 166.465 168.523C166.465 169.398 166.604 170.21 166.883 170.96C167.161 171.71 167.59 172.315 168.17 172.776C168.749 173.236 169.488 173.466 170.386 173.466ZM177.99 178.75V173.125H179.081C179.348 172.847 179.578 172.545 179.771 172.222C179.964 171.898 180.132 171.514 180.274 171.071C180.422 170.622 180.547 170.077 180.649 169.435C180.751 168.787 180.842 168.006 180.922 167.091L181.365 161.909H189.683V173.125H191.695V178.75H189.683V175H180.001V178.75H177.99ZM181.365 173.125H187.672V163.784H183.24L182.899 167.091C182.757 168.46 182.581 169.656 182.371 170.679C182.161 171.702 181.825 172.517 181.365 173.125ZM209.876 167.534V169.409H202.648V167.534H209.876ZM203.126 161.909V175H201.114V161.909H203.126ZM211.41 161.909V175H209.398V161.909H211.41ZM218.935 175.307C218.106 175.307 217.353 175.151 216.677 174.838C216.001 174.52 215.464 174.062 215.066 173.466C214.668 172.864 214.469 172.136 214.469 171.284C214.469 170.534 214.617 169.926 214.913 169.46C215.208 168.989 215.603 168.619 216.097 168.352C216.592 168.085 217.137 167.886 217.734 167.756C218.336 167.619 218.941 167.511 219.549 167.432C220.344 167.33 220.989 167.253 221.484 167.202C221.984 167.145 222.347 167.051 222.575 166.92C222.808 166.79 222.924 166.562 222.924 166.239V166.17C222.924 165.33 222.694 164.676 222.234 164.21C221.779 163.744 221.089 163.511 220.163 163.511C219.202 163.511 218.45 163.722 217.904 164.142C217.359 164.562 216.975 165.011 216.754 165.489L214.844 164.807C215.185 164.011 215.64 163.392 216.208 162.949C216.782 162.5 217.407 162.187 218.083 162.011C218.765 161.83 219.435 161.739 220.094 161.739C220.515 161.739 220.998 161.79 221.543 161.892C222.094 161.989 222.626 162.19 223.137 162.497C223.654 162.804 224.083 163.267 224.424 163.886C224.765 164.506 224.935 165.335 224.935 166.375V175H222.924V173.227H222.822C222.685 173.511 222.458 173.815 222.14 174.139C221.822 174.463 221.398 174.739 220.87 174.966C220.342 175.193 219.697 175.307 218.935 175.307ZM219.242 173.5C220.038 173.5 220.708 173.344 221.254 173.031C221.805 172.719 222.219 172.315 222.498 171.821C222.782 171.327 222.924 170.807 222.924 170.261V168.42C222.839 168.523 222.651 168.616 222.362 168.702C222.077 168.781 221.748 168.852 221.373 168.915C221.004 168.972 220.643 169.023 220.29 169.068C219.944 169.108 219.663 169.142 219.447 169.17C218.924 169.239 218.435 169.349 217.981 169.503C217.532 169.651 217.168 169.875 216.89 170.176C216.617 170.472 216.481 170.875 216.481 171.386C216.481 172.085 216.739 172.614 217.256 172.972C217.779 173.324 218.441 173.5 219.242 173.5ZM247.561 163C247.374 162.426 247.126 161.912 246.82 161.457C246.518 160.997 246.158 160.605 245.737 160.281C245.322 159.957 244.851 159.71 244.322 159.54C243.794 159.369 243.214 159.284 242.584 159.284C241.55 159.284 240.609 159.551 239.763 160.085C238.916 160.619 238.243 161.406 237.743 162.446C237.243 163.486 236.993 164.761 236.993 166.273C236.993 167.784 237.246 169.06 237.751 170.099C238.257 171.139 238.942 171.926 239.805 172.46C240.669 172.994 241.641 173.261 242.72 173.261C243.72 173.261 244.601 173.048 245.362 172.622C246.129 172.19 246.726 171.582 247.152 170.798C247.584 170.009 247.8 169.08 247.8 168.011L248.447 168.148H243.197V166.273H249.845V168.148C249.845 169.585 249.538 170.835 248.925 171.898C248.317 172.96 247.476 173.784 246.402 174.369C245.334 174.949 244.107 175.239 242.72 175.239C241.175 175.239 239.817 174.875 238.646 174.148C237.482 173.42 236.572 172.386 235.919 171.045C235.271 169.705 234.947 168.114 234.947 166.273C234.947 164.892 235.132 163.651 235.501 162.548C235.876 161.44 236.405 160.497 237.087 159.719C237.768 158.94 238.575 158.344 239.507 157.929C240.439 157.514 241.464 157.307 242.584 157.307C243.504 157.307 244.362 157.446 245.158 157.724C245.959 157.997 246.672 158.386 247.297 158.892C247.928 159.392 248.453 159.991 248.874 160.69C249.294 161.384 249.584 162.153 249.743 163H247.561ZM258.511 175.273C257.329 175.273 256.292 174.991 255.4 174.429C254.513 173.866 253.82 173.08 253.32 172.068C252.826 171.057 252.579 169.875 252.579 168.523C252.579 167.159 252.826 165.969 253.32 164.952C253.82 163.935 254.513 163.145 255.4 162.582C256.292 162.02 257.329 161.739 258.511 161.739C259.692 161.739 260.727 162.02 261.613 162.582C262.505 163.145 263.198 163.935 263.692 164.952C264.192 165.969 264.442 167.159 264.442 168.523C264.442 169.875 264.192 171.057 263.692 172.068C263.198 173.08 262.505 173.866 261.613 174.429C260.727 174.991 259.692 175.273 258.511 175.273ZM258.511 173.466C259.408 173.466 260.147 173.236 260.727 172.776C261.306 172.315 261.735 171.71 262.013 170.96C262.292 170.21 262.431 169.398 262.431 168.523C262.431 167.648 262.292 166.832 262.013 166.077C261.735 165.321 261.306 164.71 260.727 164.244C260.147 163.778 259.408 163.545 258.511 163.545C257.613 163.545 256.874 163.778 256.295 164.244C255.715 164.71 255.286 165.321 255.008 166.077C254.729 166.832 254.59 167.648 254.59 168.523C254.59 169.398 254.729 170.21 255.008 170.96C255.286 171.71 255.715 172.315 256.295 172.776C256.874 173.236 257.613 173.466 258.511 173.466Z" fill="#EBEBEB"/>
<g clip-path="url(#clip1_1_2)">
<g filter="url(#filter0_d_1_2)">
<path d="M296 184.667C305.205 184.667 312.667 177.205 312.667 168C312.667 158.795 305.205 151.333 296 151.333C286.795 151.333 279.333 158.795 279.333 168C279.333 177.205 286.795 184.667 296 184.667Z" fill="#EBEBEB"/>
<path d="M289.333 168L296 174.667L302.667 168" fill="#EBEBEB"/>
<path d="M289.333 168L296 174.667M296 174.667L302.667 168M296 174.667V161.333M312.667 168C312.667 177.205 305.205 184.667 296 184.667C286.795 184.667 279.333 177.205 279.333 168C279.333 158.795 286.795 151.333 296 151.333C305.205 151.333 312.667 158.795 312.667 168Z" stroke="black" stroke-width="3" stroke-linecap="round" stroke-linejoin="round"/>
</g>
</g>
<rect x="40" y="40" width="370" height="170" rx="20" stroke="#EBEBEB" stroke-width="2"/>
</g>
<defs>
<filter id="filter0_d_1_2" x="273.833" y="149.833" width="44.3333" height="44.3333" filterUnits="userSpaceOnUse" color-interpolation-filters="sRGB">
<feFlood flood-opacity="0" result="BackgroundImageFix"/>
<feColorMatrix in="SourceAlpha" type="matrix" values="0 0 0 0 0 0 0 0 0 0 0 0 0 0 0 0 0 0 127 0" result="hardAlpha"/>
<feOffset dy="4"/>
<feGaussianBlur stdDeviation="2"/>
<feComposite in2="hardAlpha" operator="out"/>
<feColorMatrix type="matrix" values="0 0 0 0 0 0 0 0 0 0 0 0 0 0 0 0 0 0 0.25 0"/>
<feBlend mode="normal" in2="BackgroundImageFix" result="effect1_dropShadow_1_2"/>
<feBlend mode="normal" in="SourceGraphic" in2="effect1_dropShadow_1_2" result="shape"/>
</filter>
<clipPath id="clip0_1_2">
<rect width="250" height="450" fill="white" transform="matrix(0 -1 1 0 0 250)"/>
</clipPath>
<clipPath id="clip1_1_2">
<rect width="40" height="40" fill="white" transform="translate(276 148)"/>
</clipPath>
</defs>
</svg>
